<?xml version="1.0" encoding="UTF-8"?>
<!DOCTYPE svg PUBLIC "-//W3C//DTD SVG 1.1//EN" "http://www.w3.org/Graphics/SVG/1.1/DTD/svg11.dtd">
<!-- Creator: CorelDRAW -->
<svg xmlns="http://www.w3.org/2000/svg" xml:space="preserve" width="20.7658mm" height="23.0478mm" version="1.1" style="shape-rendering:geometricPrecision; text-rendering:geometricPrecision; image-rendering:optimizeQuality; fill-rule:evenodd; clip-rule:evenodd"
viewBox="0 0 24.47 27.16"
 xmlns:xlink="http://www.w3.org/1999/xlink"
 xmlns:xodm="http://www.corel.com/coreldraw/odm/2003">
 <defs>
  <style type="text/css">
   <![CDATA[
    .fil0 {fill:white;fill-rule:nonzero}
   ]]>
  </style>
    <clipPath id="id0">
     <path d="M-0 0l24.47 0 0 27.16 -24.47 0 0 -27.16z"/>
    </clipPath>
 </defs>
 <g id="Capa_x0020_1">
  <metadata id="CorelCorpID_0Corel-Layer"/>
  <g id="_1705656223968">
   <g style="clip-path:url(#id0)">
    <image x="-0" y="0" width="24.47" height="27.16" xlink:href="bong-solid2_Images\bong-solid2_ImgID1.png"/>
   </g>
  </g>
  <path class="fil0" d="M16.8 22.77c0.97,0 1.87,-0.53 2.35,-1.37 0.68,-1.18 1.07,-2.55 1.07,-4.01 0,-1.52 -0.42,-2.93 -1.15,-4.14l1.83 -1.83 0.39 0.39c0.26,0.26 0.69,0.26 0.95,0l0.47 -0.48c0.26,-0.26 0.26,-0.69 0,-0.95l-2.21 -2.21c-0.26,-0.26 -0.69,-0.26 -0.95,0l-0.48 0.48c-0.26,0.26 -0.26,0.69 0,0.95l0.39 0.39 -1.66 1.66c-0.49,-0.48 -1.03,-0.9 -1.62,-1.24l-0 -6.48 0.67 -0c0.37,-0 0.67,-0.3 0.67,-0.67l0 -1.33c0,-0.37 -0.3,-0.67 -0.67,-0.67l-9.41 0.01c-0.37,0 -0.67,0.3 -0.67,0.67l-0 1.33c-0,0.37 0.3,0.67 0.67,0.67l0.67 -0 0 6.47c-2.41,1.4 -4.03,4 -4.03,6.98 0,1.46 0.39,2.83 1.07,4.01 0.49,0.84 1.38,1.37 2.35,1.37l9.29 0zm-7.67 -10.61l1.01 -0.58 0 -7.63 4.03 -0 0 7.64 1.01 0.58c1.04,0.6 1.85,1.5 2.38,2.55l-10.8 0c0.52,-1.04 1.33,-1.94 2.38,-2.55z"/>
 </g>
</svg>
