<?xml version="1.0" encoding="UTF-8"?>
<!DOCTYPE svg PUBLIC "-//W3C//DTD SVG 1.0//EN" "http://www.w3.org/TR/2001/REC-SVG-20010904/DTD/svg10.dtd">
<!-- Creator: CorelDRAW -->
<svg xmlns="http://www.w3.org/2000/svg" xml:space="preserve" width="20.7658mm" height="23.0479mm" version="1.0" style="shape-rendering:geometricPrecision; text-rendering:geometricPrecision; image-rendering:optimizeQuality; fill-rule:evenodd; clip-rule:evenodd"
viewBox="0 0 23.4 25.97"
 xmlns:xlink="http://www.w3.org/1999/xlink"
 xmlns:xodm="http://www.corel.com/coreldraw/odm/2003">
 <defs>
  <style type="text/css">
   <![CDATA[
    .fil0 {fill:white;fill-rule:nonzero}
   ]]>
  </style>
    <clipPath id="id0">
     <path d="M-0 0l23.4 0 0 25.97 -23.4 0 0 -25.97z"/>
    </clipPath>
 </defs>
 <g id="Capa_x0020_1">
  <metadata id="CorelCorpID_0Corel-Layer"/>
  <g id="_1667947029216">
   <g style="clip-path:url(#id0)">
    <image x="-0" y="0" width="23.4" height="25.97" xlink:href="xd_Images\xd_ImgID1.png"/>
   </g>
  </g>
  <path class="fil0" d="M16.06 21.77c0.93,0 1.79,-0.51 2.25,-1.31 0.65,-1.13 1.02,-2.43 1.02,-3.83 0,-1.45 -0.4,-2.8 -1.1,-3.96l1.75 -1.75 0.38 0.38c0.25,0.25 0.66,0.25 0.91,0l0.45 -0.45c0.25,-0.25 0.25,-0.66 0,-0.91l-2.12 -2.12c-0.25,-0.25 -0.66,-0.25 -0.91,0l-0.45 0.45c-0.25,0.25 -0.25,0.66 0,0.91l0.38 0.38 -1.58 1.58c-0.46,-0.46 -0.99,-0.86 -1.55,-1.19l-0 -6.19 0.64 -0c0.35,-0 0.64,-0.29 0.64,-0.64l0 -1.27c0,-0.36 -0.29,-0.64 -0.64,-0.64l-9 0.01c-0.35,0 -0.64,0.29 -0.64,0.64l-0 1.27c-0,0.36 0.29,0.64 0.64,0.64l0.64 -0 0 6.18c-2.3,1.33 -3.86,3.82 -3.86,6.67 0,1.4 0.37,2.7 1.02,3.83 0.47,0.81 1.32,1.31 2.25,1.31l8.88 0zm-7.33 -10.15l0.96 -0.56 0 -7.3 3.86 -0 0 7.3 0.96 0.56c1,0.58 1.77,1.44 2.27,2.43l-10.33 0c0.5,-1 1.28,-1.86 2.27,-2.43z"/>
 </g>
</svg>
