<?xml version="1.0" encoding="utf-8"?>
<svg viewBox="180.55 117.13 27.186 18.535" width="27.186" height="18.535" xmlns="http://www.w3.org/2000/svg">
  <defs>
    <filter id="drop-shadow-filter-0" color-interpolation-filters="sRGB" x="-500%" y="-500%" width="1000%" height="1000%">
      <title>Sombra paralela</title>
      <feGaussianBlur in="SourceAlpha" stdDeviation="1" result="gaussian-blur-0"/>
      <feOffset dx="-1" dy="1" result="offset-0" in="gaussian-blur-0"/>
      <feComponentTransfer result="offsetblur" in="offset-0">
        <feFuncA id="spread-ctrl" type="linear" slope="1.52"/>
      </feComponentTransfer>
      <feFlood flood-color="rgba(0,0,0,0.3)" result="flood-0"/>
      <feComposite in2="offsetblur" operator="in" result="composite-0" in="flood-0"/>
      <feMerge result="merge-0">
        <feMergeNode in="composite-0"/>
        <feMergeNode in="SourceGraphic"/>
      </feMerge>
    </filter>
  </defs>
  <g transform="matrix(3.108159, 0, 0, 3.108159, -380.549688, -247.003101)" style="">
    <g id="SVGRepo_bgCarrier" stroke-width="0" transform="matrix(1, 0, 0, 1, 53.490475, 25.199207)"/>
    <g id="SVGRepo_tracerCarrier" stroke-linecap="round" stroke-linejoin="round" transform="matrix(1, 0, 0, 1, 53.490475, 25.199207)"/>
    <g id="SVGRepo_iconCarrier" transform="matrix(0.397566, 0, 0, 0.397566, 180.104401, 114.260193)" style="filter: url(#drop-shadow-filter-0);">
      <path fill-rule="evenodd" clip-rule="evenodd" d="M 11.054 7.279 C 11.494 7.277 11.883 7.564 12.013 7.985 L 15.18 18.278 L 18.129 10.907 C 18.254 10.595 18.527 10.367 18.856 10.299 C 19.185 10.232 19.527 10.334 19.764 10.572 L 22.764 13.572 C 23.155 13.962 23.155 14.595 22.764 14.986 C 22.374 15.376 21.741 15.376 21.35 14.986 L 19.422 13.058 L 15.986 21.65 C 15.828 22.044 15.44 22.295 15.016 22.278 C 14.593 22.26 14.226 21.978 14.101 21.573 L 11.069 11.718 L 9.015 18.566 C 8.907 18.927 8.604 19.197 8.232 19.263 C 7.861 19.329 7.484 19.181 7.257 18.879 L 5.057 15.945 L 2.857 18.879 C 2.526 19.32 1.899 19.41 1.457 19.079 C 1.015 18.747 0.926 18.12 1.257 17.679 L 4.257 13.679 C 4.446 13.427 4.742 13.279 5.057 13.279 C 5.372 13.279 5.668 13.427 5.857 13.679 L 7.669 16.094 L 10.099 7.991 C 10.226 7.57 10.613 7.28 11.054 7.279 Z" style="fill: rgb(255, 255, 255);"/>
    </g>
  </g>
</svg>